<svg width="434" height="88" viewBox="0 0 434 88" fill="none" xmlns="http://www.w3.org/2000/svg">
<path d="M1.08 86V26.48H20.16L20.52 28.64C22.84 26.72 25.72 25.76 29.16 25.76C34.36 25.76 37.88 27.2 39.72 30.08C41.64 32.88 42.6 37.2 42.6 43.04V86H1.08ZM3.12 83.84H21.12V41.84L21.36 41.6C21.36 41.68 21.52 41.72 21.84 41.72C22.32 41.72 22.56 42.36 22.56 43.64V83.84H40.56V43.04C40.56 38.08 39.76 34.32 38.16 31.76C36.56 29.2 33.52 27.92 29.04 27.92C26.8 27.92 24.84 28.4 23.16 29.36C21.56 30.24 20.28 31.48 19.32 33.08L18.6 28.64H3.12V83.84ZM4.08 82.76V29.72H17.76L18.96 36.68C19.6 34.44 20.8 32.6 22.56 31.16C24.32 29.72 26.52 29 29.16 29C33.16 29 35.88 30.2 37.32 32.6C38.76 34.92 39.48 38.4 39.48 43.04V82.76H23.52V43.64C23.52 41.64 22.96 40.64 21.84 40.64C21.12 40.64 20.52 40.76 20.04 41V82.76H4.08ZM65.0766 87.32C60.2766 87.32 56.3566 86.76 53.3166 85.64C50.2766 84.44 47.9966 82.24 46.4766 79.04C45.0366 75.84 44.3166 71.12 44.3166 64.88V42.68C44.3166 36.2 46.1166 31.72 49.7166 29.24C53.3166 26.76 58.4366 25.52 65.0766 25.52C71.7166 25.52 76.8366 26.76 80.4366 29.24C84.0366 31.72 85.8366 36.2 85.8366 42.68V64.88C85.8366 71.12 85.0766 75.84 83.5566 79.04C82.0366 82.24 79.7566 84.44 76.7166 85.64C73.6766 86.76 69.7966 87.32 65.0766 87.32ZM65.0766 85.16C69.3966 85.16 72.9166 84.64 75.6366 83.6C78.4366 82.56 80.4766 80.6 81.7566 77.72C83.1166 74.76 83.7966 70.48 83.7966 64.88V61.52H65.7966V72.2C65.7966 73.08 65.7166 73.68 65.5566 74C65.4766 74.24 65.3166 74.36 65.0766 74.36C64.5966 74.36 64.3566 73.64 64.3566 72.2V58.76H83.7966V42.68C83.7966 36.92 82.1566 33 78.8766 30.92C75.6766 28.76 71.0766 27.68 65.0766 27.68C59.0766 27.68 54.4366 28.76 51.1566 30.92C47.9566 33 46.3566 36.92 46.3566 42.68V64.88C46.3566 70.48 46.9966 74.76 48.2766 77.72C49.6366 80.6 51.7166 82.56 54.5166 83.6C57.3166 84.64 60.8366 85.16 65.0766 85.16ZM65.0766 84.08C60.9966 84.08 57.6366 83.6 54.9966 82.64C52.3566 81.6 50.3966 79.72 49.1166 77C47.9166 74.2 47.3166 70.16 47.3166 64.88V42.68C47.3166 37.32 48.8366 33.68 51.8766 31.76C54.9166 29.76 59.3166 28.76 65.0766 28.76C70.7566 28.76 75.1166 29.76 78.1566 31.76C81.1966 33.68 82.7166 37.32 82.7166 42.68V57.68H63.2766V72.2C63.2766 73.48 63.4366 74.36 63.7566 74.84C64.0766 75.24 64.5166 75.44 65.0766 75.44C66.1966 75.44 66.7566 74.36 66.7566 72.2V62.6H82.7166V64.88C82.7166 70.16 82.0766 74.2 80.7966 77C79.5966 79.72 77.6766 81.6 75.0366 82.64C72.4766 83.6 69.1566 84.08 65.0766 84.08ZM63.2766 50.48H66.7566V40.28C66.7566 38.28 66.1966 37.28 65.0766 37.28C64.5166 37.28 64.0766 37.48 63.7566 37.88C63.4366 38.28 63.2766 39.08 63.2766 40.28V50.48ZM64.3566 49.4V40.16C64.3566 38.96 64.5966 38.36 65.0766 38.36C65.5566 38.36 65.7966 38.96 65.7966 40.16V49.4H64.3566ZM109.053 86.6C105.853 86.6 102.893 86.2 100.173 85.4C97.4528 84.6 95.2528 83.04 93.5728 80.72C91.9728 78.32 91.1728 74.8 91.1728 70.16V41.84H86.2528V29L93.0928 26.36L95.2528 15.8H112.653V25.52H120.933V41.84H112.653V67.28C112.653 67.6 112.693 67.96 112.773 68.36C112.853 68.68 113.053 68.84 113.373 68.84C114.493 68.84 115.933 68.72 117.693 68.48L120.933 68.12V84.2C120.293 84.44 119.613 84.68 118.893 84.92C118.173 85.08 117.453 85.24 116.733 85.4C115.533 85.72 114.253 86 112.893 86.24C111.533 86.48 110.253 86.6 109.053 86.6ZM109.053 84.32C110.253 84.32 111.413 84.24 112.533 84.08C113.733 83.92 114.813 83.72 115.773 83.48C116.333 83.32 116.853 83.2 117.333 83.12C117.893 82.96 118.453 82.8 119.013 82.64V70.52L116.733 70.76C116.093 70.84 115.453 70.92 114.813 71C114.253 71 113.773 71 113.373 71C112.173 71 111.413 70.6 111.093 69.8C110.773 68.92 110.613 68.08 110.613 67.28V39.68H119.013V27.68H110.613V17.96H96.8128L95.8528 22.88C95.6928 23.76 95.4928 24.64 95.2528 25.52C95.0128 26.4 94.8128 27.24 94.6528 28.04L88.2928 30.56V39.68H93.0928V70.16C93.0928 74.16 93.8128 77.2 95.2528 79.28C96.7728 81.28 98.7328 82.64 101.133 83.36C103.613 84 106.253 84.32 109.053 84.32ZM109.053 83.24C106.413 83.24 103.973 82.96 101.733 82.4C99.4928 81.76 97.6528 80.52 96.2128 78.68C94.8528 76.76 94.1728 73.92 94.1728 70.16V38.6H89.2528V31.28L95.4928 28.76L97.6528 19.04H109.653V28.76H117.933V38.6H109.653V67.28C109.653 68.4 109.853 69.48 110.253 70.52C110.733 71.56 111.773 72.08 113.373 72.08H114.813C115.053 72.08 115.293 72.08 115.533 72.08C115.773 72.08 116.013 72.04 116.253 71.96L117.933 71.72V81.8L115.173 82.52C113.413 83 111.373 83.24 109.053 83.24ZM125.606 86V42.08H121.766V28.52H125.606V24.56C125.606 19.2 127.206 15.44 130.406 13.28C133.606 11.12 139.086 10.04 146.846 10.04C149.886 10.04 153.086 10.16 156.446 10.4C159.886 10.64 163.166 10.96 166.286 11.36C169.406 11.68 171.966 12.08 173.966 12.56V86H154.526V19.76C153.886 19.68 153.246 19.64 152.606 19.64C152.046 19.56 151.566 19.52 151.166 19.52C148.846 19.52 147.246 19.88 146.366 20.6C145.486 21.32 145.046 22.6 145.046 24.44V28.52H152.246V42.08H145.046V86H125.606ZM127.526 84.08H143.126V40.16H150.326V30.44H143.126V24.44C143.126 22.04 143.766 20.32 145.046 19.28C146.326 18.16 148.366 17.6 151.166 17.6C151.806 17.6 152.606 17.64 153.566 17.72C154.606 17.8 155.566 17.88 156.446 17.96V84.08H172.046V14.12C169.886 13.72 167.326 13.36 164.366 13.04C161.486 12.72 158.526 12.48 155.486 12.32C152.446 12.08 149.566 11.96 146.846 11.96C139.566 11.96 134.526 12.88 131.726 14.72C128.926 16.56 127.526 19.84 127.526 24.56V30.44H123.686V40.16H127.526V84.08ZM128.366 83.24V39.32H124.526V31.28H128.366V24.56C128.366 21.6 128.886 19.28 129.926 17.6C131.046 15.84 132.966 14.6 135.686 13.88C138.406 13.16 142.126 12.8 146.846 12.8C150.686 12.8 154.886 13 159.446 13.4C164.086 13.72 168.006 14.2 171.206 14.84V83.24H157.286V17.24C156.326 17.08 155.246 16.96 154.046 16.88C152.846 16.8 151.886 16.76 151.166 16.76C145.246 16.76 142.286 19.32 142.286 24.44V31.28H149.486V39.32H142.286V83.24H128.366ZM176.158 86V26.6H194.878V86H176.158ZM177.838 83.84H193.198V28.76H177.838V83.84ZM178.798 82.76V29.84H192.238V82.76H178.798ZM185.518 22.64C183.198 22.64 181.158 21.8 179.398 20.12C177.718 18.36 176.878 16.36 176.878 14.12C176.878 11.64 177.678 9.55999 179.278 7.88C180.958 6.12 183.038 5.24 185.518 5.24C187.838 5.24 189.838 6.03999 191.518 7.63999C193.278 9.16 194.158 11.32 194.158 14.12C194.158 16.36 193.278 18.36 191.518 20.12C189.838 21.8 187.838 22.64 185.518 22.64ZM185.518 20.72C187.358 20.72 188.918 20.08 190.198 18.8C191.558 17.44 192.238 15.88 192.238 14.12C192.238 12.04 191.558 10.4 190.198 9.19999C188.918 8 187.358 7.4 185.518 7.4C183.598 7.4 181.998 8.04 180.718 9.31999C179.438 10.6 178.798 12.2 178.798 14.12C178.798 15.88 179.438 17.44 180.718 18.8C181.998 20.08 183.598 20.72 185.518 20.72ZM185.518 19.76C183.838 19.76 182.438 19.16 181.318 17.96C180.278 16.76 179.758 15.48 179.758 14.12C179.758 12.6 180.278 11.28 181.318 10.16C182.438 8.96 183.838 8.36 185.518 8.36C187.038 8.36 188.358 8.96 189.478 10.16C190.678 11.28 191.278 12.6 191.278 14.12C191.278 15.48 190.678 16.76 189.478 17.96C188.358 19.16 187.038 19.76 185.518 19.76ZM195.697 86L206.258 55.64C205.938 54.6 205.418 52.84 204.698 50.36C203.978 47.8 203.178 45 202.298 41.96C201.418 38.84 200.578 35.88 199.778 33.08C198.978 30.28 198.378 28.12 197.978 26.6H219.938L220.778 31.16L221.498 28.76C221.578 28.44 221.658 28.12 221.738 27.8C221.898 27.4 222.018 27 222.098 26.6H243.698L233.978 55.64L242.738 86H220.658L219.818 81.2L218.378 86H195.697ZM198.818 83.84H216.818C217.378 82.24 217.938 80.6 218.498 78.92C219.058 77.24 219.578 75.48 220.058 73.64L222.338 83.84H239.978L231.818 55.52L240.698 28.76H223.658C223.258 30.44 222.778 32.08 222.218 33.68C221.898 34.56 221.578 35.44 221.258 36.32C221.018 37.2 220.778 38.08 220.538 38.96L218.258 28.76H200.618C201.258 30.92 201.898 33.12 202.538 35.36C203.178 37.6 203.858 39.88 204.578 42.2C205.218 44.52 205.858 46.84 206.498 49.16C207.218 51.4 207.858 53.6 208.418 55.76L198.818 83.84ZM200.258 82.76L209.378 55.64L202.058 29.84H217.418L220.298 43.28L224.498 29.84H239.378L230.618 55.64L238.538 82.76H223.178L220.178 69.32L216.098 82.76H200.258ZM244.713 86V26.6H263.673V29.48C265.513 28.12 267.633 27.24 270.033 26.84C272.513 26.36 275.033 26.44 277.593 27.08V46.28L275.073 45.8C274.353 45.64 273.633 45.52 272.913 45.44C272.193 45.36 271.633 45.32 271.233 45.32C270.513 45.32 269.793 45.4 269.073 45.56C268.433 45.64 267.913 45.84 267.513 46.16C266.873 46.72 266.433 47.6 266.193 48.8C266.033 49.92 265.953 51.28 265.953 52.88V86H244.713ZM246.633 83.84H264.033V52.88C264.033 50.96 264.153 49.28 264.393 47.84C264.713 46.4 265.393 45.28 266.433 44.48C266.993 44 267.713 43.68 268.593 43.52C269.473 43.28 270.353 43.16 271.233 43.16C271.633 43.16 272.073 43.2 272.553 43.28C273.113 43.28 273.633 43.32 274.113 43.4L275.673 43.64V28.76C273.033 28.12 270.513 28.24 268.113 29.12C265.713 30 263.833 31.48 262.473 33.56L261.633 28.64H246.633V83.84ZM247.713 82.76V29.72H260.793L261.993 36.56C262.953 33.76 264.633 31.76 267.033 30.56C269.433 29.36 271.953 29.04 274.593 29.6V42.44C274.033 42.36 273.473 42.32 272.913 42.32C272.353 42.24 271.793 42.2 271.233 42.2C270.353 42.2 269.393 42.28 268.353 42.44C267.313 42.6 266.473 43 265.833 43.64C264.713 44.52 263.953 45.76 263.553 47.36C263.233 48.96 263.073 50.8 263.073 52.88V82.76H247.713ZM299.452 87.32C294.652 87.32 290.732 86.76 287.692 85.64C284.652 84.44 282.372 82.24 280.852 79.04C279.412 75.84 278.692 71.12 278.692 64.88V42.68C278.692 36.2 280.492 31.72 284.092 29.24C287.692 26.76 292.812 25.52 299.452 25.52C306.092 25.52 311.212 26.76 314.812 29.24C318.412 31.72 320.212 36.2 320.212 42.68V64.88C320.212 71.12 319.452 75.84 317.932 79.04C316.412 82.24 314.132 84.44 311.092 85.64C308.052 86.76 304.172 87.32 299.452 87.32ZM299.452 85.16C303.772 85.16 307.292 84.64 310.012 83.6C312.812 82.56 314.852 80.6 316.132 77.72C317.492 74.76 318.172 70.48 318.172 64.88V61.52H300.172V72.2C300.172 73.08 300.092 73.68 299.932 74C299.852 74.24 299.692 74.36 299.452 74.36C298.972 74.36 298.732 73.64 298.732 72.2V58.76H318.172V42.68C318.172 36.92 316.532 33 313.252 30.92C310.052 28.76 305.452 27.68 299.452 27.68C293.452 27.68 288.812 28.76 285.532 30.92C282.332 33 280.732 36.92 280.732 42.68V64.88C280.732 70.48 281.372 74.76 282.652 77.72C284.012 80.6 286.092 82.56 288.892 83.6C291.692 84.64 295.212 85.16 299.452 85.16ZM299.452 84.08C295.372 84.08 292.012 83.6 289.372 82.64C286.732 81.6 284.772 79.72 283.492 77C282.292 74.2 281.692 70.16 281.692 64.88V42.68C281.692 37.32 283.212 33.68 286.252 31.76C289.292 29.76 293.692 28.76 299.452 28.76C305.132 28.76 309.492 29.76 312.532 31.76C315.572 33.68 317.092 37.32 317.092 42.68V57.68H297.652V72.2C297.652 73.48 297.812 74.36 298.132 74.84C298.452 75.24 298.892 75.44 299.452 75.44C300.572 75.44 301.132 74.36 301.132 72.2V62.6H317.092V64.88C317.092 70.16 316.452 74.2 315.172 77C313.972 79.72 312.052 81.6 309.412 82.64C306.852 83.6 303.532 84.08 299.452 84.08ZM297.652 50.48H301.132V40.28C301.132 38.28 300.572 37.28 299.452 37.28C298.892 37.28 298.452 37.48 298.132 37.88C297.812 38.28 297.652 39.08 297.652 40.28V50.48ZM298.732 49.4V40.16C298.732 38.96 298.972 38.36 299.452 38.36C299.932 38.36 300.172 38.96 300.172 40.16V49.4H298.732ZM343.428 86.6C340.228 86.6 337.268 86.2 334.548 85.4C331.828 84.6 329.628 83.04 327.948 80.72C326.348 78.32 325.548 74.8 325.548 70.16V41.84H320.628V29L327.468 26.36L329.628 15.8H347.028V25.52H355.308V41.84H347.028V67.28C347.028 67.6 347.068 67.96 347.148 68.36C347.228 68.68 347.428 68.84 347.748 68.84C348.868 68.84 350.308 68.72 352.068 68.48L355.308 68.12V84.2C354.668 84.44 353.988 84.68 353.268 84.92C352.548 85.08 351.828 85.24 351.108 85.4C349.908 85.72 348.628 86 347.268 86.24C345.908 86.48 344.628 86.6 343.428 86.6ZM343.428 84.32C344.628 84.32 345.788 84.24 346.908 84.08C348.108 83.92 349.188 83.72 350.148 83.48C350.708 83.32 351.228 83.2 351.708 83.12C352.268 82.96 352.828 82.8 353.388 82.64V70.52L351.108 70.76C350.468 70.84 349.828 70.92 349.188 71C348.628 71 348.148 71 347.748 71C346.548 71 345.788 70.6 345.468 69.8C345.148 68.92 344.988 68.08 344.988 67.28V39.68H353.388V27.68H344.988V17.96H331.188L330.228 22.88C330.068 23.76 329.868 24.64 329.628 25.52C329.388 26.4 329.188 27.24 329.028 28.04L322.668 30.56V39.68H327.468V70.16C327.468 74.16 328.188 77.2 329.628 79.28C331.148 81.28 333.108 82.64 335.508 83.36C337.988 84 340.628 84.32 343.428 84.32ZM343.428 83.24C340.788 83.24 338.348 82.96 336.108 82.4C333.868 81.76 332.028 80.52 330.588 78.68C329.228 76.76 328.548 73.92 328.548 70.16V38.6H323.628V31.28L329.868 28.76L332.028 19.04H344.028V28.76H352.308V38.6H344.028V67.28C344.028 68.4 344.228 69.48 344.628 70.52C345.108 71.56 346.148 72.08 347.748 72.08H349.188C349.428 72.08 349.668 72.08 349.908 72.08C350.148 72.08 350.388 72.04 350.628 71.96L352.308 71.72V81.8L349.548 82.52C347.788 83 345.748 83.24 343.428 83.24ZM356.861 86V26.6H375.821V29.48C377.661 28.12 379.781 27.24 382.181 26.84C384.661 26.36 387.181 26.44 389.741 27.08V46.28L387.221 45.8C386.501 45.64 385.781 45.52 385.061 45.44C384.341 45.36 383.781 45.32 383.381 45.32C382.661 45.32 381.941 45.4 381.221 45.56C380.581 45.64 380.061 45.84 379.661 46.16C379.021 46.72 378.581 47.6 378.341 48.8C378.181 49.92 378.101 51.28 378.101 52.88V86H356.861ZM358.781 83.84H376.181V52.88C376.181 50.96 376.301 49.28 376.541 47.84C376.861 46.4 377.541 45.28 378.581 44.48C379.141 44 379.861 43.68 380.741 43.52C381.621 43.28 382.501 43.16 383.381 43.16C383.781 43.16 384.221 43.2 384.701 43.28C385.261 43.28 385.781 43.32 386.261 43.4L387.821 43.64V28.76C385.181 28.12 382.661 28.24 380.261 29.12C377.861 30 375.981 31.48 374.621 33.56L373.781 28.64H358.781V83.84ZM359.861 82.76V29.72H372.941L374.141 36.56C375.101 33.76 376.781 31.76 379.181 30.56C381.581 29.36 384.101 29.04 386.741 29.6V42.44C386.181 42.36 385.621 42.32 385.061 42.32C384.501 42.24 383.941 42.2 383.381 42.2C382.501 42.2 381.541 42.28 380.501 42.44C379.461 42.6 378.621 43 377.981 43.64C376.861 44.52 376.101 45.76 375.701 47.36C375.381 48.96 375.221 50.8 375.221 52.88V82.76H359.861ZM411.6 87.32C406.8 87.32 402.88 86.76 399.84 85.64C396.8 84.44 394.52 82.24 393 79.04C391.56 75.84 390.84 71.12 390.84 64.88V42.68C390.84 36.2 392.64 31.72 396.24 29.24C399.84 26.76 404.96 25.52 411.6 25.52C418.24 25.52 423.36 26.76 426.96 29.24C430.56 31.72 432.36 36.2 432.36 42.68V64.88C432.36 71.12 431.6 75.84 430.08 79.04C428.56 82.24 426.28 84.44 423.24 85.64C420.2 86.76 416.32 87.32 411.6 87.32ZM411.6 85.16C415.92 85.16 419.44 84.64 422.16 83.6C424.96 82.56 427 80.6 428.28 77.72C429.64 74.76 430.32 70.48 430.32 64.88V42.68C430.32 36.92 428.68 33 425.4 30.92C422.2 28.76 417.6 27.68 411.6 27.68C405.6 27.68 400.96 28.76 397.68 30.92C394.48 33 392.88 36.92 392.88 42.68V64.88C392.88 70.48 393.52 74.76 394.8 77.72C396.16 80.6 398.24 82.56 401.04 83.6C403.84 84.64 407.36 85.16 411.6 85.16ZM411.6 84.08C407.52 84.08 404.16 83.6 401.52 82.64C398.88 81.6 396.92 79.72 395.64 77C394.44 74.2 393.84 70.16 393.84 64.88V42.68C393.84 37.32 395.36 33.68 398.4 31.76C401.44 29.76 405.84 28.76 411.6 28.76C417.28 28.76 421.64 29.76 424.68 31.76C427.72 33.68 429.24 37.32 429.24 42.68V64.88C429.24 70.16 428.6 74.2 427.32 77C426.12 79.72 424.2 81.6 421.56 82.64C419 83.6 415.68 84.08 411.6 84.08ZM411.6 75.44C412.4 75.44 412.88 75.12 413.04 74.48C413.2 73.76 413.28 73.12 413.28 72.56V40.16C413.28 39.04 413.16 38.28 412.92 37.88C412.68 37.48 412.24 37.28 411.6 37.28C411.04 37.28 410.6 37.48 410.28 37.88C409.96 38.2 409.8 38.96 409.8 40.16V72.56C409.8 73.36 409.88 74.04 410.04 74.6C410.28 75.16 410.8 75.44 411.6 75.44ZM411.6 74.36C411.12 74.36 410.88 73.76 410.88 72.56V40.16C410.88 38.96 411.12 38.36 411.6 38.36C412.08 38.36 412.32 38.96 412.32 40.16V72.56C412.32 73.76 412.08 74.36 411.6 74.36Z" fill="#E03131"/>
</svg>
