<svg width="100" height="100" viewBox="0 0 100 100" fill="none" xmlns="http://www.w3.org/2000/svg">
<rect width="100" height="100" rx="10" fill="black"/>
<path d="M11.08 80V20.48H30.16L30.52 22.64C32.84 20.72 35.72 19.76 39.16 19.76C44.36 19.76 47.88 21.2 49.72 24.08C51.64 26.88 52.6 31.2 52.6 37.04V80H11.08ZM13.12 77.84H31.12V35.84L31.36 35.6C31.36 35.68 31.52 35.72 31.84 35.72C32.32 35.72 32.56 36.36 32.56 37.64V77.84H50.56V37.04C50.56 32.08 49.76 28.32 48.16 25.76C46.56 23.2 43.52 21.92 39.04 21.92C36.8 21.92 34.84 22.4 33.16 23.36C31.56 24.24 30.28 25.48 29.32 27.08L28.6 22.64H13.12V77.84ZM14.08 76.76V23.72H27.76L28.96 30.68C29.6 28.44 30.8 26.6 32.56 25.16C34.32 23.72 36.52 23 39.16 23C43.16 23 45.88 24.2 47.32 26.6C48.76 28.92 49.48 32.4 49.48 37.04V76.76H33.52V37.64C33.52 35.64 32.96 34.64 31.84 34.64C31.12 34.64 30.52 34.76 30.04 35V76.76H14.08ZM54.5566 80V20.6H73.5166V23.48C75.3566 22.12 77.4766 21.24 79.8766 20.84C82.3566 20.36 84.8766 20.44 87.4366 21.08V40.28L84.9166 39.8C84.1966 39.64 83.4766 39.52 82.7566 39.44C82.0366 39.36 81.4766 39.32 81.0766 39.32C80.3566 39.32 79.6366 39.4 78.9166 39.56C78.2766 39.64 77.7566 39.84 77.3566 40.16C76.7166 40.72 76.2766 41.6 76.0366 42.8C75.8766 43.92 75.7966 45.28 75.7966 46.88V80H54.5566ZM56.4766 77.84H73.8766V46.88C73.8766 44.96 73.9966 43.28 74.2366 41.84C74.5566 40.4 75.2366 39.28 76.2766 38.48C76.8366 38 77.5566 37.68 78.4366 37.52C79.3166 37.28 80.1966 37.16 81.0766 37.16C81.4766 37.16 81.9166 37.2 82.3966 37.28C82.9566 37.28 83.4766 37.32 83.9566 37.4L85.5166 37.64V22.76C82.8766 22.12 80.3566 22.24 77.9566 23.12C75.5566 24 73.6766 25.48 72.3166 27.56L71.4766 22.64H56.4766V77.84ZM57.5566 76.76V23.72H70.6366L71.8366 30.56C72.7966 27.76 74.4766 25.76 76.8766 24.56C79.2766 23.36 81.7966 23.04 84.4366 23.6V36.44C83.8766 36.36 83.3166 36.32 82.7566 36.32C82.1966 36.24 81.6366 36.2 81.0766 36.2C80.1966 36.2 79.2366 36.28 78.1966 36.44C77.1566 36.6 76.3166 37 75.6766 37.64C74.5566 38.52 73.7966 39.76 73.3966 41.36C73.0766 42.96 72.9166 44.8 72.9166 46.88V76.76H57.5566Z" fill="#E03131"/>
</svg>
