<?xml version="1.0" standalone="no"?>
<!DOCTYPE svg PUBLIC "-//W3C//DTD SVG 20010904//EN"
 "http://www.w3.org/TR/2001/REC-SVG-20010904/DTD/svg10.dtd">
<svg version="1.0" xmlns="http://www.w3.org/2000/svg"
 width="700.000000pt" height="700.000000pt" viewBox="0 0 700.000000 700.000000"
 preserveAspectRatio="xMidYMid meet">
<metadata>
Created by potrace 1.14, written by Peter Selinger 2001-2017
</metadata>
<g transform="translate(0.000000,700.000000) scale(0.100000,-0.100000)"
fill="#000000" stroke="none">
<path d="M600 6988 c-152 -22 -276 -85 -390 -198 -119 -120 -178 -240 -200
-410 -8 -61 -10 -906 -8 -2935 3 -2690 4 -2854 21 -2915 68 -250 264 -444 512
-507 66 -17 216 -18 2965 -18 2749 0 2899 1 2965 18 250 64 448 262 512 512
17 66 18 216 18 2965 0 2747 -1 2899 -18 2965 -64 249 -256 443 -507 512 -61
17 -223 18 -2935 19 -1733 1 -2896 -2 -2935 -8z m2316 -1379 c262 -29 454
-127 558 -284 106 -159 167 -353 196 -617 6 -63 10 -666 10 -1703 l0 -1605
-1455 0 -1455 0 2 2083 3 2082 670 0 670 0 7 -50 c17 -104 9 -100 90 -45 101
71 254 125 403 143 65 8 211 6 301 -4z m2234 -149 l0 -99 38 25 c55 38 161 90
233 114 175 59 429 77 612 44 l87 -16 0 -674 c0 -371 -2 -674 -5 -674 -3 0
-63 11 -135 25 -277 54 -469 49 -562 -17 -44 -31 -87 -130 -98 -228 -6 -51
-10 -582 -10 -1322 l0 -1238 -745 0 -745 0 0 2080 0 2080 665 0 665 0 0 -100z"/>
<path d="M2540 5445 c-179 -40 -336 -138 -436 -271 -27 -35 -50 -62 -51 -60
-3 3 -52 279 -53 294 0 1 -243 2 -540 2 l-540 0 0 -1930 0 -1930 630 0 630 0
0 1473 c0 811 2 1476 5 1479 3 2 19 2 36 0 62 -9 59 72 59 -1512 l0 -1440 630
0 631 0 -4 1548 c-3 1409 -5 1556 -20 1652 -41 244 -116 429 -215 528 -68 68
-171 125 -279 153 -104 28 -385 36 -483 14z m445 -79 c98 -27 201 -82 260
-142 98 -97 167 -270 202 -504 16 -105 18 -238 18 -1605 l0 -1490 -560 0 -560
0 -5 1430 c-5 1341 -6 1432 -23 1462 -9 18 -26 37 -36 43 -26 13 -110 13 -150
-1 l-31 -11 0 -1464 0 -1464 -557 2 -558 3 -3 1858 -2 1857 483 0 483 0 39
-230 c21 -126 42 -230 47 -230 4 0 8 6 8 14 0 38 94 198 156 265 109 118 218
181 370 215 89 20 331 15 419 -8z"/>
<path d="M5580 5415 c-205 -46 -378 -156 -496 -317 l-22 -29 -6 28 c-3 15 -15
84 -26 153 -12 69 -23 133 -26 143 -5 16 -39 17 -525 17 l-519 0 0 -1930 0
-1930 605 0 604 0 4 1218 c3 877 7 1234 16 1277 6 33 27 92 46 132 59 119 144
177 309 209 79 16 105 16 235 5 80 -6 158 -14 174 -17 l27 -6 0 520 0 520 -27
6 c-64 15 -308 16 -373 1z m308 -61 l22 -6 0 -449 0 -448 -167 6 c-183 6 -287
-5 -360 -37 -65 -29 -165 -130 -201 -203 -68 -139 -65 -85 -71 -1402 l-6
-1190 -537 -3 -538 -2 0 1860 0 1860 458 0 458 0 38 -217 c21 -120 40 -225 43
-233 3 -9 12 3 24 32 41 104 129 221 213 284 107 81 231 134 361 155 52 8 224
4 263 -7z"/>
</g>
</svg>
