<svg width="79" height="86" viewBox="0 0 79 86" fill="none" xmlns="http://www.w3.org/2000/svg">
<path d="M1.08 86V26.48H20.16L20.52 28.64C22.84 26.72 25.72 25.76 29.16 25.76C34.36 25.76 37.88 27.2 39.72 30.08C41.64 32.88 42.6 37.2 42.6 43.04V86H1.08ZM3.12 83.84H21.12V41.84L21.36 41.6C21.36 41.68 21.52 41.72 21.84 41.72C22.32 41.72 22.56 42.36 22.56 43.64V83.84H40.56V43.04C40.56 38.08 39.76 34.32 38.16 31.76C36.56 29.2 33.52 27.92 29.04 27.92C26.8 27.92 24.84 28.4 23.16 29.36C21.56 30.24 20.28 31.48 19.32 33.08L18.6 28.64H3.12V83.84ZM4.08 82.76V29.72H17.76L18.96 36.68C19.6 34.44 20.8 32.6 22.56 31.16C24.32 29.72 26.52 29 29.16 29C33.16 29 35.88 30.2 37.32 32.6C38.76 34.92 39.48 38.4 39.48 43.04V82.76H23.52V43.64C23.52 41.64 22.96 40.64 21.84 40.64C21.12 40.64 20.52 40.76 20.04 41V82.76H4.08ZM44.5566 86V26.6H63.5166V29.48C65.3566 28.12 67.4766 27.24 69.8766 26.84C72.3566 26.36 74.8766 26.44 77.4366 27.08V46.28L74.9166 45.8C74.1966 45.64 73.4766 45.52 72.7566 45.44C72.0366 45.36 71.4766 45.32 71.0766 45.32C70.3566 45.32 69.6366 45.4 68.9166 45.56C68.2766 45.64 67.7566 45.84 67.3566 46.16C66.7166 46.72 66.2766 47.6 66.0366 48.8C65.8766 49.92 65.7966 51.28 65.7966 52.88V86H44.5566ZM46.4766 83.84H63.8766V52.88C63.8766 50.96 63.9966 49.28 64.2366 47.84C64.5566 46.4 65.2366 45.28 66.2766 44.48C66.8366 44 67.5566 43.68 68.4366 43.52C69.3166 43.28 70.1966 43.16 71.0766 43.16C71.4766 43.16 71.9166 43.2 72.3966 43.28C72.9566 43.28 73.4766 43.32 73.9566 43.4L75.5166 43.64V28.76C72.8766 28.12 70.3566 28.24 67.9566 29.12C65.5566 30 63.6766 31.48 62.3166 33.56L61.4766 28.64H46.4766V83.84ZM47.5566 82.76V29.72H60.6366L61.8366 36.56C62.7966 33.76 64.4766 31.76 66.8766 30.56C69.2766 29.36 71.7966 29.04 74.4366 29.6V42.44C73.8766 42.36 73.3166 42.32 72.7566 42.32C72.1966 42.24 71.6366 42.2 71.0766 42.2C70.1966 42.2 69.2366 42.28 68.1966 42.44C67.1566 42.6 66.3166 43 65.6766 43.64C64.5566 44.52 63.7966 45.76 63.3966 47.36C63.0766 48.96 62.9166 50.8 62.9166 52.88V82.76H47.5566Z" fill="#E03131"/>
</svg>
